<svg xmlns="http://www.w3.org/2000/svg" xmlns:xlink="http://www.w3.org/1999/xlink" width="32" height="33" viewBox="0 0 32 33" version="1.1">
  <title>
    About
  </title>
  <desc>
    About Page Icon.
  </desc>
  <g stroke="none" stroke-width="1" fill="none" fill-rule="evenodd">
    <g class="icon-outline" transform="translate(-92.000000, -585.000000)" fill="#B8B8B8">
      <g transform="translate(0.000000, 568.000000)">
        <g transform="translate(21.000000, 17.239437)">
          <path d="M102 18.3L96 18.3C95.4 18.3 95 18.7 95 19.3 95 19.8 95.4 20.3 96 20.3L102 20.3C102.6 20.3 103 19.8 103 19.3 103 18.7 102.6 18.3 102 18.3L102 18.3ZM102 12.2L94 12.2C93.4 12.2 93 12.6 93 13.2 93 13.7 93.4 14.2 94 14.2L102 14.2C102.6 14.2 103 13.7 103 13.2 103 12.6 102.6 12.2 102 12.2L102 12.2ZM102 24.3L96 24.3C95.4 24.3 95 24.8 95 25.4 95 25.9 95.4 26.4 96 26.4L102 26.4C102.6 26.4 103 25.9 103 25.4 103 24.8 102.6 24.3 102 24.3L102 24.3ZM94 8.1L102 8.1C102.6 8.1 103 7.7 103 7.1 103 6.5 102.6 6.1 102 6.1L94 6.1C93.4 6.1 93 6.5 93 7.1 93 7.7 93.4 8.1 94 8.1L94 8.1ZM91 25.9C91 28.4 88.8 30.4 86.1 30.4L77.9 30.4C75.2 30.4 73 28.4 73 25.9L73 22.8C73 20.7 74.6 18.9 76.8 18.4 78.3 19.6 80.1 20.3 82 20.3 84 20.3 85.8 19.6 87.2 18.4 89.4 18.9 91 20.7 91 22.8L91 25.9 91 25.9ZM75 10.1C75 5.7 78.1 2 82 2 85.9 2 89 5.7 89 10.1 89 14.6 85.9 18.3 82 18.3 78.1 18.3 75 14.6 75 10.1L75 10.1ZM89 16.6C90.2 14.8 91 12.6 91 10.1 91 4.5 87 0 82 0 77 0 73 4.5 73 10.1 73 12.6 73.8 14.8 75 16.6 72.7 17.4 71 19.6 71 22.3L71 26.4C71 29.7 73.7 32.5 77 32.5L87 32.5C90.3 32.5 93 29.7 93 26.4L93 22.3C93 19.6 91.3 17.4 89 16.6L89 16.6Z"/>
        </g>
      </g>
    </g>
  </g>
</svg>