<svg xmlns="http://www.w3.org/2000/svg" width="32" height="32" viewBox="0 0 32 32" version="1.1"><title>Fill 214</title><desc>Created with Sketch.</desc><g stroke="none" stroke-width="1" fill="none" fill-rule="evenodd"><g transform="translate(-516.000000, -99.000000)" fill="#D66262"><g transform="translate(99.000000, 98.000000)"><path d="M428.8 24L423.4 27.3C422.9 27.5 422.5 27 422.7 26.6L426 21.2 428.8 24 428.8 24ZM438.2 8.2L441.8 11.7 430.5 23C429.2 21.6 427.4 19.8 427 19.4L438.2 8.2 438.2 8.2ZM441.8 4.7C442.2 4.3 442.8 4.3 443.2 4.7L445.3 6.8C445.7 7.2 445.7 7.8 445.3 8.2L443.2 10.3 439.7 6.7 441.8 4.7 441.8 4.7ZM425.1 19.1L420.8 27.8C420.4 28.8 421.2 29.6 422.2 29.2L430.9 24.9C431.3 24.8 431.7 24.7 431.9 24.4L447.4 8.9C448.2 8.1 448.2 6.9 447.4 6.1L443.9 2.6C443.1 1.8 441.9 1.8 441.1 2.6L425.6 18C425.3 18.3 425.2 18.7 425.1 19.1L425.1 19.1ZM447 13L447 29C447 30.1 445.9 31 444.8 31L421 31C419.9 31 419 30.1 419 29L419 5.2C419 4.1 419.9 3 421 3L437 3 437 1 421 1C418.8 1 417 3 417 5.2L417 29C417 31.2 418.8 33 421 33L444.8 33C447 33 449 31.2 449 29L449 13 447 13 447 13Z"/></g></g></g></svg>