<svg xmlns="http://www.w3.org/2000/svg" width="32" height="32" viewBox="0 0 32 32" version="1.1">
  <title>
    Fill 32
  </title>
  <desc>
    Created with Sketch.
  </desc>
  <g stroke="none" stroke-width="1" fill="none" fill-rule="evenodd">
    <g class="icon-fill" transform="translate(-100.000000, -1087.000000)" fill="#F7F7F7">
      <g transform="translate(99.000000, 98.000000)">
        <path d="M17 1019C9.3 1019 3 1012.7 3 1005 3 997.3 9.3 991 17 991 24.7 991 31 997.3 31 1005 31 1012.7 24.7 1019 17 1019L17 1019ZM17 989C8.2 989 1 996.2 1 1005 1 1013.8 8.2 1021 17 1021 25.8 1021 33 1013.8 33 1005 33 996.2 25.8 989 17 989L17 989ZM21.5 1004.1L13.9 996.5C13.5 996.1 12.9 996.1 12.5 996.5 12.1 996.9 12.1 997.5 12.5 997.9L19.6 1005 12.5 1012.1C12.1 1012.5 12.1 1013.1 12.5 1013.5 12.9 1013.9 13.5 1013.9 13.9 1013.5L21.5 1005.9C21.8 1005.6 21.9 1005.3 21.8 1005 21.9 1004.7 21.8 1004.4 21.5 1004.1L21.5 1004.1Z"/>
      </g>
    </g>
  </g>
</svg>
