<svg xmlns="http://www.w3.org/2000/svg" width="32" height="32" viewBox="0 0 32 32" version="1.1">
  <title>
    Fill 65
  </title>
  <desc>
    Created with Sketch.
  </desc>
  <g stroke="none" stroke-width="1" fill="none" fill-rule="evenodd">
    <g class="icon-fill" transform="translate(-365.000000, -104.000000)" fill="#444444">
      <path d="M394.2 122.3L390.8 120 394.2 117.7 394.2 122.3ZM382.4 132.1L382.4 125.6 388.3 121.7 393.1 124.9 382.4 132.1ZM381 123.3L376.1 120 381 116.7 385.9 120 381 123.3ZM379.6 132.1L368.9 124.9 373.7 121.7 379.6 125.6 379.6 132.1ZM367.7 117.7L371.2 120 367.7 122.3 367.7 117.7ZM379.6 107.9L379.6 114.4 373.7 118.3 368.9 115.1 379.6 107.9ZM382.4 107.9L393.1 115.1 388.3 118.3 382.4 114.4 382.4 107.9ZM397 114.9C397 114.9 397 114.9 397 114.9 397 114.8 397 114.8 397 114.8 396.9 114.7 396.9 114.7 396.9 114.7 396.9 114.7 396.9 114.6 396.9 114.6 396.9 114.6 396.9 114.6 396.9 114.5 396.9 114.5 396.8 114.5 396.8 114.4 396.8 114.4 396.8 114.4 396.8 114.4 396.8 114.4 396.7 114.3 396.7 114.3 396.7 114.3 396.7 114.3 396.7 114.2 396.7 114.2 396.6 114.2 396.6 114.2 396.6 114.1 396.6 114.1 396.6 114.1 396.5 114.1 396.5 114.1 396.5 114 396.5 114 396.4 114 396.4 114 396.4 114 396.4 114 396.4 114L381.8 104.2C381.3 103.9 380.7 103.9 380.2 104.2L365.6 114C365.6 114 365.6 114 365.6 114 365.6 114 365.5 114 365.5 114 365.5 114.1 365.5 114.1 365.4 114.1 365.4 114.1 365.4 114.1 365.4 114.2 365.4 114.2 365.3 114.2 365.3 114.2 365.3 114.3 365.3 114.3 365.3 114.3 365.3 114.3 365.2 114.4 365.2 114.4 365.2 114.4 365.2 114.4 365.2 114.4 365.2 114.5 365.1 114.5 365.1 114.5 365.1 114.6 365.1 114.6 365.1 114.6 365.1 114.6 365.1 114.7 365.1 114.7 365.1 114.7 365.1 114.7 365 114.8 365 114.8 365 114.8 365 114.9 365 114.9 365 114.9 365 114.9 365 115 365 115.1 365 115.1L365 124.9C365 124.9 365 125 365 125.1 365 125.1 365 125.1 365 125.1 365 125.2 365 125.2 365 125.2 365.1 125.3 365.1 125.3 365.1 125.3 365.1 125.3 365.1 125.4 365.1 125.4 365.1 125.4 365.1 125.4 365.1 125.5 365.1 125.5 365.2 125.5 365.2 125.6 365.2 125.6 365.2 125.6 365.2 125.6 365.2 125.6 365.3 125.7 365.3 125.7 365.3 125.7 365.3 125.7 365.3 125.8 365.3 125.8 365.4 125.8 365.4 125.8 365.4 125.9 365.4 125.9 365.4 125.9 365.5 125.9 365.5 125.9 365.5 126 365.5 126 365.6 126 365.6 126 365.6 126 365.6 126 365.6 126L380.2 135.8C380.5 135.9 380.7 136 381 136 381.3 136 381.5 135.9 381.8 135.8L396.4 126C396.4 126 396.4 126 396.4 126 396.4 126 396.5 126 396.5 126 396.5 125.9 396.5 125.9 396.6 125.9 396.6 125.9 396.6 125.9 396.6 125.8 396.6 125.8 396.7 125.8 396.7 125.8 396.7 125.7 396.7 125.7 396.7 125.7 396.7 125.7 396.8 125.6 396.8 125.6 396.8 125.6 396.8 125.6 396.8 125.6 396.8 125.5 396.9 125.5 396.9 125.5 396.9 125.4 396.9 125.4 396.9 125.4 396.9 125.4 396.9 125.3 396.9 125.3 396.9 125.3 396.9 125.3 397 125.2 397 125.2 397 125.2 397 125.1 397 125.1 397 125.1 397 125.1 397 125 397 124.9 397 124.9L397 115.1C397 115.1 397 115 397 114.9L397 114.9Z"/>
    </g>
  </g>
</svg>