<svg xmlns="http://www.w3.org/2000/svg" xmlns:xlink="http://www.w3.org/1999/xlink" width="32" height="33" viewBox="0 0 32 33" version="1.1">
  <title>
    Contact
  </title>
  <desc>
    Contact Page Icon.
  </desc>
  <g stroke="none" stroke-width="1" fill="none" fill-rule="evenodd">
    <g class="icon-outline" transform="translate(-164.000000, -586.000000)" fill="#B8B8B8">
      <g transform="translate(0.000000, 568.000000)">
        <g transform="translate(21.000000, 17.239437)">
          <path d="M159 27.4C157.8 27.4 156.7 27.2 155.6 27L150.9 29.9 151 25.2C147.4 23 145 19.3 145 15.2 145 8.5 151.3 3 159 3 166.7 3 173 8.5 173 15.2 173 21.9 166.7 27.4 159 27.4L159 27.4ZM159 1C150.2 1 143 7.4 143 15.2 143 19.7 145.3 23.7 149 26.3L149 33.5 156 29.2C157 29.3 158 29.4 159 29.4 167.8 29.4 175 23.1 175 15.2 175 7.4 167.8 1 159 1L159 1ZM166 12.2L152 12.2C151.4 12.2 151 12.6 151 13.2 151 13.7 151.4 14.2 152 14.2L166 14.2C166.6 14.2 167 13.7 167 13.2 167 12.6 166.6 12.2 166 12.2L166 12.2ZM164 18.3L154 18.3C153.4 18.3 153 18.7 153 19.3 153 19.8 153.4 20.3 154 20.3L164 20.3C164.6 20.3 165 19.8 165 19.3 165 18.7 164.6 18.3 164 18.3L164 18.3Z"/>
        </g>
      </g>
    </g>
  </g>
</svg>