<?xml version="1.0" encoding="UTF-8" standalone="no"?>
<svg width="32px" height="14px" viewBox="0 0 32 14" version="1.1" xmlns="http://www.w3.org/2000/svg" xmlns:xlink="http://www.w3.org/1999/xlink" xmlns:sketch="http://www.bohemiancoding.com/sketch/ns">
    <!-- Generator: Sketch 3.3.2 (12043) - http://www.bohemiancoding.com/sketch -->
    <title>Fill 9</title>
    <desc>Created with Sketch.</desc>
    <defs></defs>
    <g id="Page-1" stroke="none" stroke-width="1" fill="none" fill-rule="evenodd" sketch:type="MSPage">
        <g id="Line" sketch:type="MSArtboardGroup" transform="translate(-256.000000, -1200.000000)" fill="#F7F7F7">
            <g id="Line-Icon-Set" sketch:type="MSLayerGroup" transform="translate(99.000000, 98.000000)">
                <path d="M188.718,1108.22 L182.795,1102.28 C182.404,1101.89 181.768,1101.89 181.376,1102.28 C180.984,1102.68 180.984,1103.31 181.376,1103.71 L185.635,1107.98 L160.365,1107.98 L164.624,1103.71 C165.016,1103.31 165.016,1102.68 164.624,1102.28 C164.232,1101.89 163.597,1101.89 163.205,1102.28 L157.282,1108.22 C157.073,1108.43 156.983,1108.71 156.998,1108.98 C156.983,1109.26 157.073,1109.54 157.282,1109.75 L163.205,1115.69 C163.597,1116.08 164.232,1116.08 164.624,1115.69 C165.016,1115.29 165.016,1114.66 164.624,1114.26 L160.365,1109.99 L185.635,1109.99 L181.376,1114.26 C180.984,1114.66 180.984,1115.29 181.376,1115.69 C181.768,1116.08 182.404,1116.08 182.795,1115.69 L188.718,1109.75 C188.927,1109.54 189.017,1109.26 189.002,1108.98 C189.017,1108.71 188.927,1108.43 188.718,1108.22" id="Fill-9" sketch:type="MSShapeGroup"></path>
            </g>
        </g>
    </g>
</svg>