<svg xmlns="http://www.w3.org/2000/svg" xmlns:xlink="http://www.w3.org/1999/xlink" width="46" height="45" viewBox="0 0 46 45" version="1.1">
  <title>
    gc-logo
  </title>
  <desc>
    Created with Sketch.
  </desc>
  <g stroke="none" stroke-width="1" fill="none" fill-rule="evenodd">
    <g transform="translate(-612.000000, -373.000000)">
      <g transform="translate(124.000000, 207.000000)">
        <g transform="translate(204.000000, 0.000000)">
          <g transform="translate(124.000000, 123.000000)">
            <g transform="translate(160.500000, 43.633803)">
              <path d="M30 0C26 0 22.4 1.6 19.8 4.2 19.1 4.9 18.5 5.6 18 6.4 20.3 4.9 23 4.1 26 4.1L40.5 4.1 40.5 18.5C40.5 21.4 39.5 24.1 38.1 26.4 41.9 23.8 44.5 19.4 44.5 14.4L44.5 0 30 0 30 0Z" fill="#64A70B"/>
              <path d="M22.3 7.7C18.3 7.7 14.7 9.4 12.1 11.9 11.4 12.6 10.9 13.3 10.3 14.1 12.6 12.5 15.4 11.6 18.4 11.6L32.8 11.6 32.8 26C32.8 29 31.9 31.8 30.4 34.1 34.3 31.5 36.8 27.1 36.8 22.1L36.8 7.7 22.3 7.7 22.3 7.7Z" fill="#004B87"/>
              <path d="M29.1 15.4L29.1 29.8C29.1 37.7 22.6 44.2 14.6 44.2L0.2 44.2 0.2 29.7C0.2 21.8 6.7 15.3 14.6 15.3L29.1 15.3 29.1 15.4ZM10 39.9C10.9 39.5 11.2 38.9 11.2 37.4L11.2 33.2 6.9 33.2C5.3 33.2 4.5 33.5 3.9 34.4L3.8 34.5 9.9 34.5 9.9 40 10 39.9 10 39.9ZM16 41.1C17.1 40.5 17.4 40 17.5 38.5L17.5 26.9 6 26.9C4.2 26.9 3.6 27.5 3.1 28.3L3 28.4 15.9 28.4 15.9 41.2 16 41.1 16 41.1ZM22.3 37.3C23.4 36.6 23.7 36.2 23.8 34.7L23.8 20.6 9.6 20.6C7.8 20.6 7 21.4 6.6 22L6.5 22.2 22.2 22.2 22.2 37.4 22.3 37.3 22.3 37.3Z" fill="#64A70B"/>
            </g>
          </g>
        </g>
      </g>
    </g>
  </g>
</svg>