<svg xmlns="http://www.w3.org/2000/svg" width="32" height="32" viewBox="0 0 32 32" version="1.1">
  <title>
    GitHub
  </title>
  <desc>
    GitHub Social Icon.
  </desc>
  <g stroke="none" stroke-width="1" fill="none" fill-rule="evenodd">
    <g class="icon-fill" transform="translate(-242.000000, -449.000000)" fill="#444444">
      <g transform="translate(86.000000, 448.000000)">
        <path d="M172 1C163.2 1 156 8.2 156 17 156 24.1 160.6 30.1 166.9 32.2 167.7 32.3 168 31.8 168 31.4 168 31 168 30 168 28.7 163.6 29.7 162.6 26.5 162.6 26.5 161.9 24.7 160.8 24.2 160.8 24.2 159.4 23.2 161 23.2 161 23.2 162.6 23.3 163.4 24.9 163.4 24.9 164.8 27.3 167.2 26.6 168.1 26.2 168.2 25.2 168.6 24.5 169.1 24.1 165.5 23.7 161.8 22.3 161.8 16.2 161.8 14.4 162.4 13 163.4 11.9 163.3 11.5 162.7 9.8 163.6 7.6 163.6 7.6 164.9 7.2 168 9.3 169.3 8.9 170.6 8.7 172 8.7 173.4 8.7 174.7 8.9 176 9.3 179.1 7.2 180.4 7.6 180.4 7.6 181.3 9.8 180.7 11.5 180.6 11.9 181.6 13 182.2 14.4 182.2 16.2 182.2 22.3 178.5 23.7 174.9 24.1 175.5 24.6 176 25.5 176 27 176 29.2 176 30.9 176 31.4 176 31.8 176.3 32.3 177.1 32.2 183.4 30.1 188 24.1 188 17 188 8.2 180.8 1 172 1"/>
      </g>
    </g>
  </g>
</svg>