<?xml version="1.0" encoding="UTF-8" standalone="no"?>
<svg width="250px" height="250px" viewBox="0 0 250 250" version="1.1" xmlns="http://www.w3.org/2000/svg" xmlns:xlink="http://www.w3.org/1999/xlink" xmlns:sketch="http://www.bohemiancoding.com/sketch/ns">
    <!-- Generator: Sketch 3.3.2 (12043) - http://www.bohemiancoding.com/sketch -->
    <title>gulp-logo</title>
    <desc>Created with Sketch.</desc>
    <defs></defs>
    <g id="Assets" stroke="none" stroke-width="1" fill="none" fill-rule="evenodd" sketch:type="MSPage">
        <g id="gulp-logo" sketch:type="MSLayerGroup">
            <rect id="Rectangle-5" fill="#CF4646" sketch:type="MSShapeGroup" x="0" y="0" width="250" height="250"></rect>
            <path d="M74.8558458,127.707333 C74.7076719,127.926549 74.4399486,128.617078 74.051834,129.778078 C73.6637194,130.940765 73.1922569,132.397706 72.6374466,134.152275 C72.0834783,135.905157 71.4815217,137.866294 70.8357866,140.036529 C70.1883676,142.205922 69.5232688,144.42 68.8396482,146.677922 C68.1560277,148.937529 67.5001897,151.149922 66.8721344,153.320157 C66.2423953,155.489549 65.6800079,157.450686 65.1816047,159.205255 C64.6823597,160.957294 64.2673043,162.426882 63.933913,163.61149 C63.6013636,164.794412 63.3976245,165.495059 63.3243794,165.715961 C63.1391621,166.416608 62.8436561,167.194824 62.4378617,168.050608 C62.0303834,168.904706 61.550502,169.716647 60.9965336,170.483902 C60.4417233,171.250314 59.8330316,171.886039 59.1670909,172.391078 C58.5011502,172.894431 57.8175296,173.146529 57.1162292,173.146529 C55.9325217,173.146529 55.0737866,172.751941 54.5383399,171.963608 C54.0012095,171.173588 53.7343281,169.728451 53.7343281,167.62398 L53.7343281,166.702431 C53.7343281,166.395529 53.7520079,166.066706 53.7898933,165.716804 C53.8260949,165.015314 54.1039209,163.698333 54.6216877,161.770078 C55.1386126,159.84098 55.758249,157.660627 56.478913,155.227333 C57.1995771,152.794039 57.9758063,150.273902 58.8076008,147.665235 C59.6393953,145.056569 60.387,142.722765 61.0529407,140.660451 C59.093004,142.854294 56.9688972,145.034647 54.6780949,147.204039 C52.3856087,149.374275 50.0392411,151.325294 47.6373083,153.056255 C45.2345336,154.789745 42.8140791,156.202843 40.3751028,157.298078 C37.9361265,158.392471 35.5880751,158.942196 33.3343162,158.942196 C30.747166,158.942196 28.5203478,158.371392 26.6538617,157.232314 C24.7873755,156.091549 23.2450198,154.601725 22.0251107,152.760314 C20.8052016,150.918902 19.8993202,148.837196 19.3083083,146.51351 C18.7164545,144.189824 18.4209486,141.86698 18.4209486,139.543294 L18.4209486,138.68751 C18.4209486,138.425294 18.4386285,138.162235 18.4765138,137.899176 C18.6979328,133.690235 19.2982055,129.372529 20.2781739,124.944373 C21.2573004,120.516216 22.5411937,116.10998 24.1315375,111.72651 C25.7201976,107.343882 27.5589012,103.057373 29.6476482,98.8703529 C31.7347115,94.6841765 34.007834,90.7273333 36.4661739,87.0006667 C38.9236719,83.2756863 41.5386047,79.8449608 44.3101304,76.7093333 C47.0816561,73.5753922 49.9272688,70.8790392 52.8478103,68.6211176 C55.766668,66.3640392 58.7141502,64.5993529 61.689415,63.327902 C64.6638379,62.0572941 67.6121621,61.4215686 70.5310198,61.4215686 C73.8935573,61.4215686 77.1466482,62.3422745 80.2877668,64.1828431 C83.4280435,66.0242549 86.3662648,69.0064314 89.1024308,73.126 C89.7296443,74.0467059 90.1278617,74.9783725 90.2937154,75.9201569 C90.4595692,76.8636275 90.542917,77.7506078 90.542917,78.5836275 C90.542917,80.5557255 90.0714545,82.1138431 89.1293715,83.2529216 C88.1872885,84.3936863 87.069249,84.9628039 85.775253,84.9628039 C84.5923874,84.9628039 83.4937115,84.3380392 82.4766996,83.0885098 C81.4596877,81.8389804 80.3231265,80.0532157 79.0670158,77.7295294 C77.8841502,75.6250588 76.5808933,74.1023529 75.1589289,73.1597255 C73.7361225,72.217098 72.1929249,71.7457843 70.529336,71.7457843 C67.9421858,71.7457843 65.1799209,72.8207843 62.2416996,74.9682549 C59.3034783,77.1165686 56.3930395,79.9562549 53.5103834,83.4847843 C50.6268854,87.0141569 47.8646206,91.0460392 45.2219051,95.5838039 C42.5800316,100.121569 40.2412411,104.768098 38.2089012,109.525078 C36.1757194,114.282059 34.5592767,118.973275 33.3587312,123.596196 C32.1573439,128.221647 31.5570711,132.374941 31.5570711,136.058608 C31.5570711,137.285373 31.640419,138.546706 31.8062727,139.838392 C31.9729684,141.131765 32.2861542,142.305412 32.7491976,143.356804 C33.2105573,144.409039 33.8386126,145.274941 34.6342055,145.953667 C35.4289565,146.635765 36.4358656,146.97302 37.6557747,146.97302 C39.0230158,146.97302 40.5754743,146.51351 42.3123083,145.591961 C44.0483004,144.672098 45.8508024,143.466412 47.7172885,141.975745 C49.5829328,140.485078 51.4586798,138.797961 53.3445296,136.911863 C55.2295375,135.028294 56.9840514,133.121118 58.6105968,131.191176 C60.2363004,129.262922 61.6784704,127.409706 62.934581,125.634059 C64.1906917,123.859255 65.1327747,122.313784 65.7616719,120.99849 L70.9174506,105.544627 C71.5455059,103.879431 72.3671976,102.69651 73.3842095,101.994176 C74.4003794,101.293529 75.444332,100.941941 76.5169091,100.941941 C77.033834,100.941941 77.5507589,101.030471 78.0685257,101.205 C78.5854506,101.380373 79.0476522,101.654392 79.4542885,102.027059 C79.8609249,102.399725 80.1833715,102.882 80.4241542,103.473882 C80.6640949,104.065765 80.7844862,104.756294 80.7844862,105.544627 C80.7844862,107.649098 80.5992688,109.622039 80.2305178,111.463451 C79.8609249,113.306549 79.3894625,115.102431 78.8169723,116.856157 C78.2436403,118.609039 77.6063241,120.374569 76.9050237,122.149373 C76.2037233,123.92502 75.5201028,125.778235 74.8558458,127.707333 L74.8558458,127.707333 Z" id="Shape" stroke="#FFFFFF" fill="#FFFFFF" sketch:type="MSShapeGroup"></path>
            <path d="M144.760257,140.596373 C143.13287,142.788529 141.239443,144.925039 139.078292,147.007588 C136.9163,149.090137 134.68864,150.94251 132.397838,152.564706 C130.105352,154.186059 127.851593,155.490392 125.634877,156.476863 C123.41732,157.463333 121.422024,157.956569 119.648146,157.956569 C117.874269,157.956569 116.432941,157.364686 115.32332,156.181765 C114.215383,154.998843 113.660573,152.982059 113.660573,150.131412 C113.660573,148.114627 113.956079,145.76902 114.547091,143.094588 C113.585644,144.805314 112.385941,146.537118 110.944613,148.29 C109.502443,150.043725 107.858217,151.644 106.010253,153.090824 C104.162289,154.537647 102.092905,155.709608 99.8012609,156.607549 C97.5096166,157.50549 95.0142332,157.956569 92.3176364,157.956569 C91.0985692,157.956569 89.9241225,157.802275 88.7968221,157.495373 C87.6686798,157.189314 86.6811344,156.664039 85.8316601,155.917863 C84.980502,155.173373 84.2977233,154.176784 83.7799565,152.925569 C83.2621897,151.677725 83.0037273,150.10949 83.0037273,148.224235 C83.0037273,148.180392 83.0778142,147.511784 83.2259881,146.218412 C83.3724783,144.925882 83.8439407,142.887176 84.6395336,140.102294 C85.4334427,137.319941 86.6634545,133.713843 88.3262016,129.285686 C89.9897905,124.857529 92.3361581,119.488431 95.3661462,113.175863 C96.1423755,111.509824 97.0381542,110.315098 98.0543241,109.591686 C99.071336,108.868275 100.170012,108.506569 101.352877,108.506569 C101.870644,108.506569 102.406091,108.584137 102.960901,108.735902 C103.515711,108.891039 104.031794,109.13049 104.51336,109.459314 C104.993241,109.788137 105.381356,110.20549 105.677704,110.708 C105.974051,111.212196 106.121383,111.792275 106.121383,112.450765 C106.121383,112.889196 106.065818,113.306549 105.954688,113.698608 C105.76947,114.446471 105.372937,115.420294 104.762561,116.625137 C104.152186,117.831667 103.441625,119.213569 102.629194,120.769157 C101.815079,122.325588 100.956344,124.002588 100.051304,125.800157 C99.1454229,127.597725 98.3052095,129.460216 97.5289802,131.389314 C96.752751,133.319255 96.0876522,135.280392 95.5336838,137.274412 C94.9788735,139.269275 94.6648458,141.209333 94.5916008,143.092902 C94.5916008,143.882922 94.7759763,144.606333 95.1455692,145.263137 C95.5143202,145.920784 96.1238538,146.250451 96.9750119,146.250451 C99.3769447,146.250451 101.667747,145.460431 103.849103,143.882078 C106.029617,142.304569 108.042593,140.342588 109.892241,137.99698 C111.739364,135.653059 113.412213,133.131235 114.908265,130.434882 C116.405158,127.738529 117.653692,125.273196 118.650498,123.037196 C119.35264,121.546529 119.970593,119.946255 120.507723,118.236373 C121.04317,116.527333 121.624921,114.949824 122.253818,113.502157 C122.881874,112.055333 123.602538,110.85049 124.414968,109.885941 C125.227399,108.921392 126.244411,108.439118 127.46432,108.439118 C128.794518,108.439118 129.846889,108.944157 130.62396,109.950863 C131.40019,110.960098 131.787462,112.164941 131.787462,113.567922 C131.787462,114.357941 131.539103,115.442216 131.039858,116.822431 C130.539771,118.204333 129.911715,119.782686 129.154008,121.55749 C128.397142,123.332294 127.574609,125.22851 126.688091,127.245294 C125.800731,129.262922 124.977356,131.311745 124.221332,133.393451 C123.462783,135.476843 122.835569,137.515549 122.336324,139.510412 C121.837079,141.504431 121.587877,143.356804 121.587877,145.065843 C121.587877,146.645039 122.400308,147.433373 124.026012,147.433373 C125.170992,147.433373 126.59464,147.038784 128.293589,146.251294 C129.995063,145.461275 131.77736,144.354235 133.643846,142.930176 C135.50949,141.506118 137.375976,139.828275 139.242462,137.90002 C141.108107,135.970922 142.763277,133.888373 144.203763,131.652373 L144.760257,140.596373 L144.760257,140.596373 Z" id="Shape" stroke="#FFFFFF" fill="#FFFFFF" sketch:type="MSShapeGroup"></path>
            <path d="M146.479411,137.306451 C146.072775,138.315686 145.675399,139.48849 145.287285,140.825706 C144.898328,142.162922 144.705534,143.356804 144.705534,144.409039 C144.705534,145.065843 144.816664,145.591961 145.038083,145.987392 C145.260344,146.38198 145.685502,146.579275 146.314399,146.579275 C147.089787,146.579275 148.059652,146.306098 149.223996,145.757216 C150.387498,145.209176 151.643609,144.484922 152.994012,143.58698 C154.343573,142.689882 155.747858,141.658725 157.206866,140.496039 C158.665874,139.335039 160.117304,138.12851 161.558632,136.879824 C163.000802,135.629451 164.376462,134.380765 165.68898,133.132078 C167.000656,131.881706 168.174261,130.730824 169.209794,129.679431 C169.5053,129.372529 169.85553,129.152471 170.263008,129.021784 C170.66796,128.890255 171.019874,128.82449 171.316221,128.82449 C172.054565,128.82449 172.665783,129.131392 173.145664,129.746039 C173.624704,130.359843 173.865486,131.169255 173.865486,132.179333 C173.865486,133.099196 173.606182,134.12951 173.090099,135.269431 C172.572332,136.410196 171.667292,137.528196 170.372455,138.622588 C168.006723,141.210176 165.624154,143.664549 163.221379,145.988235 C160.818605,148.311922 158.426775,150.360745 156.043364,152.135549 C153.659111,153.912039 151.293379,155.325137 148.947012,156.378216 C146.599802,157.429608 144.318261,157.955725 142.099862,157.955725 C140.584447,157.955725 139.318233,157.714588 138.302905,157.233157 C137.285051,156.750039 136.473462,156.092392 135.863929,155.261059 C135.253553,154.427196 134.819134,153.441569 134.560672,152.300804 C134.301368,151.160882 134.173399,149.956882 134.173399,148.684588 C134.173399,146.536275 134.441123,144.334 134.976569,142.074392 C135.512016,139.818157 136.149332,137.745725 136.888518,135.861314 C138.181672,132.440706 139.495032,129.045392 140.825229,125.668627 C142.154585,122.293549 143.374494,119.202608 144.484957,116.395804 L161.280806,73.9817843 C161.945905,72.271902 162.841684,71.0662157 163.969826,70.3647255 C165.097126,69.6640784 166.232846,69.3124902 167.37951,69.3124902 C168.523648,69.3124902 169.569285,69.6851569 170.512209,70.4304902 C171.453451,71.1766667 171.925755,72.3815098 171.925755,74.047549 C171.925755,74.8367255 171.767478,75.6697451 171.453451,76.5457647 C171.139423,77.4243137 170.742047,78.3652549 170.262166,79.3736471 C169.337763,81.4342745 168.239087,83.9552549 166.963613,86.934902 C165.688138,89.9170784 164.320055,93.1606275 162.860206,96.6672353 C161.401198,100.175529 159.903462,103.824627 158.371209,107.616216 C156.836431,111.407804 155.339538,115.101588 153.879688,118.696725 C152.42068,122.292706 151.053439,125.699824 149.777964,128.922294 C148.50249,132.144765 147.402972,134.939765 146.479411,137.306451 L146.479411,137.306451 Z" id="Shape" stroke="#FFFFFF" fill="#FFFFFF" sketch:type="MSShapeGroup"></path>
            <path d="M225.032632,125.404725 C225.550399,125.05398 226.031964,124.769843 226.474802,124.548941 C226.91764,124.331412 227.342798,124.220118 227.750277,124.220118 C228.561866,124.220118 229.172241,124.582667 229.579719,125.305235 C229.985514,126.028647 230.189253,126.916471 230.189253,127.968706 C230.189253,129.110314 229.940893,130.269627 229.440806,131.454235 C228.942403,132.637157 228.193957,133.623627 227.195466,134.412804 C223.240233,137.920255 219.711,141.119961 216.608609,144.014451 C213.503692,146.907255 210.573889,149.396196 207.820885,151.478745 C205.067881,153.561294 202.379704,155.172529 199.75551,156.311608 C197.131316,157.450686 194.322747,158.020647 191.328119,158.020647 C188.519549,158.020647 186.348296,157.406 184.815202,156.179235 C183.281265,154.952471 182.514296,153.26451 182.514296,151.115353 L182.514296,150.622118 C182.514296,150.46951 182.531976,150.283176 182.569862,150.063118 C182.716352,148.748667 183.290526,147.235235 184.288174,145.526196 C185.286664,143.816314 186.487209,142.040667 187.891494,140.200098 C189.295779,138.359529 190.79183,136.495353 192.382174,134.610098 C193.970834,132.726529 195.439103,130.939078 196.789506,129.250275 C198.138225,127.564 199.256265,126.018529 200.141941,124.614706 C201.030142,123.212569 201.47298,122.07349 201.47298,121.195784 C201.47298,120.669667 201.286921,120.254 200.919012,119.946255 C200.550261,119.640196 199.939043,119.486745 199.089569,119.486745 C197.610356,119.486745 196.087364,119.869529 194.516383,120.637627 C192.944561,121.403196 191.392103,122.434353 189.859008,123.726882 C188.325071,125.021098 186.827336,126.500804 185.368328,128.166 C183.908478,129.832882 182.542079,131.563843 181.265763,133.361412 C179.990289,135.159824 178.827628,136.966667 177.773573,138.787 C176.72036,140.605647 175.823739,142.282647 175.085395,143.817157 C174.863976,144.299431 174.549107,144.979843 174.14247,145.855863 C173.735834,146.733569 173.292154,147.720039 172.813115,148.816118 C172.331549,149.911353 171.823885,151.042 171.287597,152.201314 C170.751308,153.364 170.262166,154.460922 169.819328,155.489549 C169.375648,156.519863 168.977431,157.438882 168.627202,158.251667 C168.275289,159.061922 168.025245,159.620922 167.878755,159.927824 C167.692696,160.322412 167.387929,161.066902 166.963613,162.16298 C166.538455,163.259059 166.049312,164.540627 165.49366,166.010216 C164.940534,167.478118 164.357099,169.023588 163.748407,170.645784 C163.139715,172.26798 162.566383,173.80249 162.030095,175.249314 C161.493806,176.695294 161.022344,177.966745 160.616549,179.062824 C160.209913,180.158059 159.950609,180.904235 159.839478,181.29798 C159.470727,182.437902 159.035466,183.511216 158.537063,184.520451 C158.037818,185.528 157.465328,186.415824 156.818751,187.183922 C156.172174,187.94949 155.432146,188.564137 154.601194,189.025333 C153.768557,189.485686 152.835735,189.71502 151.801885,189.71502 C150.470846,189.71502 149.37217,189.396314 148.50249,188.761431 C147.635336,188.125706 147.200075,186.909059 147.200075,185.11149 C147.200075,184.234627 147.310364,183.336686 147.532625,182.416824 C147.755727,181.495275 148.032711,180.584686 148.364419,179.686745 C148.696968,178.787961 149.039621,177.911941 149.38985,177.057843 C149.741763,176.202059 150.065893,175.380843 150.359715,174.590824 C152.355854,170.20651 154.388194,165.812078 156.457577,161.405843 C158.527802,156.999608 160.513838,152.639745 162.416526,148.31951 C164.320055,144.001804 166.084672,139.75998 167.712059,135.594882 C169.337763,131.430627 170.686482,127.440902 171.758217,123.627392 C172.053723,122.837373 172.46036,121.720216 172.978126,120.272549 C173.495051,118.826569 174.086063,117.40251 174.752004,115.998686 C175.417103,114.596549 176.165549,113.379902 176.996502,112.350431 C177.828296,111.320118 178.724075,110.804118 179.68468,110.804118 C181.163893,110.804118 182.234787,111.143059 182.899885,111.823471 C183.565826,112.503882 183.898375,113.499627 183.898375,114.815765 C183.898375,115.078824 183.861332,115.496176 183.788087,116.064451 C183.713158,116.634412 183.621391,117.238941 183.511103,117.873824 C183.399972,118.509549 183.279581,119.112392 183.149929,119.683196 C183.020277,120.253157 182.899885,120.668824 182.788755,120.931039 C184.155996,119.440373 185.634368,117.96151 187.224711,116.492765 C188.813372,115.024863 190.458439,113.696922 192.159071,112.514 C193.85802,111.331078 195.595696,110.366529 197.369573,109.61951 C199.143451,108.87502 200.917328,108.502353 202.691206,108.502353 C203.909431,108.502353 205.120921,108.677725 206.321466,109.028471 C207.522012,109.379216 208.594589,109.894373 209.536672,110.573098 C210.479597,111.254353 211.245723,112.108451 211.836735,113.137922 C212.426905,114.169078 212.723253,115.363804 212.723253,116.722098 C212.723253,118.52051 212.271154,120.437804 211.366115,122.47651 C210.460233,124.514373 209.323672,126.564039 207.957273,128.623824 C206.588348,130.685294 205.109976,132.690275 203.521316,134.641294 C201.930972,136.592314 200.445024,138.367961 199.058419,139.967392 C197.672656,141.567667 196.509154,142.926804 195.566229,144.043961 C194.624146,145.162804 194.13332,145.919098 194.097119,146.312843 C194.097119,146.839804 194.263814,147.266431 194.596364,147.595255 C194.928913,147.924078 195.483723,148.08849 196.259953,148.08849 C196.888008,148.08849 197.812411,147.736902 199.03232,147.035412 C200.250545,146.334765 201.960439,145.118118 204.159474,143.387157 C206.356826,141.655353 209.149399,139.331667 212.530458,136.415255 C215.914043,133.505588 220.080593,129.832882 225.032632,125.404725 L225.032632,125.404725 Z" id="Shape" stroke="#FFFFFF" fill="#FFFFFF" sketch:type="MSShapeGroup"></path>
        </g>
    </g>
</svg>