<svg xmlns="http://www.w3.org/2000/svg" xmlns:xlink="http://www.w3.org/1999/xlink" width="31" height="33" viewBox="0 0 31 33" version="1.1">
  <title>
    Home
  </title>
  <desc>
    Home Page Icon.
  </desc>
  <g stroke="none" stroke-width="1" fill="none" fill-rule="evenodd">
    <g class="icon-outline" transform="translate(-21.000000, -587.000000)" fill="#B8B8B8">
      <g transform="translate(0.000000, 568.000000)">
        <g transform="translate(21.000000, 17.239437)">
          <path d="M29 20.3L2 20.3 2 6.1C2 5 2.9 4.1 4 4.1L27 4.1C28.1 4.1 29 5 29 6.1L29 20.3 29 20.3ZM29 24.3C29 25.5 28.1 26.4 27 26.4L4 26.4C2.9 26.4 2 25.5 2 24.3L2 22.3 29 22.3 29 24.3 29 24.3ZM14 28.4L18 28.4 18 32.5 14 32.5 14 28.4ZM27 2L4 2C1.8 2 0 3.8 0 6.1L0 24.3C0 26.6 1.8 28.4 4 28.4L12 28.4 12 32.5 10 32.5C9.4 32.5 9 32.9 9 33.5 9 34 9.4 34.5 10 34.5L22 34.5C22.6 34.5 23 34 23 33.5 23 32.9 22.6 32.5 22 32.5L20 32.5 20 28.4 27 28.4C29.2 28.4 31 26.6 31 24.3L31 6.1C31 3.8 29.2 2 27 2L27 2Z" />
        </g>
      </g>
    </g>
  </g>
</svg>
