<?xml version="1.0" encoding="UTF-8" standalone="no"?>
<svg width="240px" height="246px" viewBox="0 0 240 246" version="1.1" xmlns="http://www.w3.org/2000/svg" xmlns:xlink="http://www.w3.org/1999/xlink" xmlns:sketch="http://www.bohemiancoding.com/sketch/ns">
    <!-- Generator: Sketch 3.3.2 (12043) - http://www.bohemiancoding.com/sketch -->
    <title>jade-logo</title>
    <desc>Created with Sketch.</desc>
    <defs></defs>
    <g id="Assets" stroke="none" stroke-width="1" fill="none" fill-rule="evenodd" sketch:type="MSPage">
        <path d="M180.7,134.1 C181.8,135.2 181.9,137 180.6,137.9 C177.4,140 173.3,139.7 169.5,139.3 C163.1,138.6 155.5,138.3 152.2,132.3 C152.1,132.3 152.1,132.2 152,132.1 C147.8,129.8 154.9,128.2 156.9,127.9 C161.4,127.3 166.2,128.5 170.6,129.5 C174.3,130.2 177.8,131.2 180.7,134.1 L180.7,134.1 L180.7,134.1 Z M239.1,229.5 C236.1,231.6 237.4,235.2 235.3,237.7 C233.2,240.1 228.1,240.1 225.4,240.1 C213.9,240.2 202.7,239.3 191.4,240.2 C188.5,240.4 185.9,240.8 183.2,241.5 C182.4,241.7 181.1,242.2 180.2,241.7 C177.9,240.5 175.8,236.7 172.8,237.9 C170.3,239 168.4,242.6 165.4,240.4 C159.9,236.3 155.3,240 149.5,241.1 C143.5,242.3 137.8,239 131.9,240.6 C127.5,241.9 123.3,243.2 118.8,241.7 C114.3,240.1 113.1,236.6 117,233.3 C123.2,228.2 130.9,227.4 138.6,228 C150.3,229 161.9,228.1 173.6,227.5 C174,227.5 174.2,227.7 174.2,228 C179.2,230 182.4,226 185.3,222.5 C185.7,222 186.4,222.3 186.6,222.6 C190.8,228.8 195.9,221.8 201.2,222.4 C202.6,222.5 203.9,222.9 204.8,224.2 C205.2,224.8 205.3,225.5 205.3,226.2 C205.5,229.4 209.6,228.7 209.5,225.5 C209.5,225 210.1,224.5 210.6,224.7 C214.8,226.4 220.2,228.6 223.6,224.2 C226.5,220.5 226.9,215.2 227.2,210.7 C227.8,198.6 227,186.2 226.1,174.2 C225.4,162.5 224.1,150.6 225.5,138.9 C226.9,127.3 226.8,116 226.6,104.3 C226.5,98.2 226.2,92.1 226.6,86 C226.8,80.4 227.8,74.4 227.2,68.8 C226.6,63.8 223.6,59.5 223,54.6 C222.4,50.1 223,45.4 224.1,41 C224.7,38.3 226.1,35 226,32.2 C225.9,29.8 225.8,27.3 225.9,24.9 C225.9,23.7 225.7,21.8 226.6,20.8 C228,19.1 228.7,16.6 225.4,16.3 C217.5,15.3 209.4,10.3 201.9,15.2 C202,16.9 202.1,18.8 201.7,20.5 L202.8,21.9 C204.7,22.7 206.6,23 208.7,23.1 C211.1,23.1 213.7,22.5 216.1,22.7 C218.1,22.9 219.8,24.7 219.1,27 C218.6,28.7 217.1,30.1 216.2,31.5 C214.6,34 214.9,37.6 214.9,40.5 C214.8,47.8 214.9,55.1 215.1,62.2 C215.3,68.2 215.9,74.3 216.3,80.3 C216.4,80.4 216.8,80.5 216.8,80.8 C217,87.6 219.3,94.3 219.4,101.1 C219.5,101.2 217.6,109.5 217.6,109.5 C217.5,118.3 216.8,134.6 216.8,134.6 C216.7,149.6 214.1,164.5 216.7,179.4 C217.8,185.4 215.5,191.2 215.3,197.2 C215.1,203.8 215.9,210.3 214.9,216.9 C215,217.3 214.9,217.7 214.4,217.9 C200.7,220.5 186.8,221 172.8,220.2 C169.3,220 165.2,219.7 161.8,221 C160.5,221.6 158.7,222.4 157.1,222.3 C155.1,222.1 154.1,220.5 152.2,220.2 C149.8,219.7 147.5,219.2 145.2,219 C139,218.2 133.1,217.8 127.3,220.3 C124.1,221.7 120.7,221.1 117.5,219.8 C113.7,218.2 110.8,216.3 106.6,218.4 C104.9,219.2 103.4,220.1 101.5,220.5 C99.9,220.9 98.5,220.5 97.1,219.9 C93.9,218.7 91.4,218.3 88,218.9 C88.4,219.4 88.1,220.3 87.4,220.3 C67.1,219.2 46.7,221.6 26.4,221.9 C25.4,222.1 24.7,223.2 24.1,223.2 L23.5,223.2 C23,223.2 22.9,221.5 23,221.2 C20.3,218.2 21,208.3 21.1,205.4 C21.9,186.5 19.5,167.5 19,148.7 C18.8,139.3 18.8,129.8 20.3,120.5 C22.1,110 22.1,99.8 21.9,89.3 C21.4,68.4 23.5,47.6 22.9,26.7 C22.9,26.3 23.3,26.2 23.5,26.3 L23.7,26.2 C29.3,25.7 35.4,24.2 40.9,25.7 C41,25.7 41.1,25.8 41.1,25.9 L41.9,26 L48.1,26 C48.3,26 48.6,26.1 48.6,26.2 C59.6,26.3 70.6,25.4 81.6,24.9 C85.4,24.8 89.4,24.9 93.2,23.7 C95.1,23.1 97.4,22.1 99.4,22.3 C104.4,22.7 109.5,24.2 114.4,25.3 C117.9,26 120.3,20 123.4,22.1 C128.1,25.1 133.5,24 138.9,24.1 C141.8,24.2 144.5,23.6 147.4,23.6 C149,23.6 150.3,24 151.7,24.3 C153.1,24.1 154.3,24.2 155.9,24.8 L181.5,24 C186.6,24.1 192.2,24.5 197.1,22.6 C198.4,22.1 199.1,21.4 199.5,20.6 C199.3,20.2 199.1,19.8 198.9,19.3 C198.5,18.6 198.1,17.7 197.6,17.2 C192.1,15.4 185.8,15.9 180,15.6 C172.1,15.2 164.4,16.3 156.5,16.9 C149.2,17.5 141.6,18 134.3,17.4 C130,17 121.9,15.1 118.2,18.1 C117.8,18.3 117.5,18.3 117.1,18.1 C110.1,12.4 100.9,21 92.9,18.6 C88.1,17.2 83.6,16.2 78.5,16.8 C73.6,17.3 68.8,18 63.8,18 C52.9,17.9 42.1,18.6 31.2,18.2 C28.8,18.1 26.5,18.1 24.3,17.8 C22.4,17.6 19.9,16.6 18,17.4 C15,18.5 14.4,19.5 14.7,20.4 C15.5,21 12.7,24.8 12.7,26.7 L12.5,31.7 C12.4,39.1 11.9,45.9 10.2,53.1 C9.4,56.9 7.5,62.3 8.9,66.1 C9.7,68.6 11.6,70.3 12.7,72.5 C14.6,76.6 14.7,81.6 14.5,86 L13.3,129 C12.8,143.3 11.9,157.7 12.5,172.1 C13,185.4 15.1,199 13.3,212.2 C12.7,216.6 7.4,224.4 12.5,227.5 C15.4,229.2 18.8,229.6 22.1,229.9 C30.2,230.4 38.3,229.5 46.5,228.6 C49.5,228.2 52.5,227.6 55.5,227.6 C57.8,227.5 59.9,227.8 62.1,228.6 C64,229.3 66.9,230.6 69.1,230.6 C69.2,230.7 72.7,230.5 72.9,229.5 C75.9,228.2 78.5,227.2 82.3,227.9 C86,228.6 89.3,229.1 93.2,228.4 C95.2,228 98.2,227.8 100.2,228.3 L101,228.9 C101.8,228.5 100.5,229.9 99.7,230.2 C95.2,232 96.6,237.8 96.1,241.7 C96.1,242.1 95.6,242.2 95.4,242.2 C93.6,242.2 91.1,242.2 90.1,240.3 C88,236.4 82.9,233.7 82.9,241.9 C82.9,242.4 82.5,242.6 82.2,242.6 C81.8,242.6 81.5,242.4 81.5,241.9 C81.5,241.4 76.2,238.6 75.6,238.3 C73,236.9 70,235.2 66.9,236.3 C65,236.9 63.4,238 61.6,238.8 C58.4,242.7 55,246.9 50.3,244.4 C49.3,243.9 45.4,240.5 44.6,241.2 C43.5,242.4 42.3,243.6 40.8,244.2 C36.5,245.9 32,245.6 27.4,245.5 C27.2,245.5 26.7,245.3 26.7,244.9 C26.5,243.1 25.5,239.5 23,241.7 C22.4,242.2 21.9,242.7 21.3,243.3 C20.6,243.9 19.7,244.7 18.8,245.1 C15.8,246.3 6.6,244.7 5.4,242.6 C4.4,241 4.1,239.4 3.7,237.6 C3,233.2 3.5,228.4 3.3,223.9 C2.9,212.6 2.1,201.5 1.2,190.2 C0.7,184.5 0.2,178.6 0.7,172.8 C0.9,169.1 1.1,164 3,160.6 C4.6,157.9 3.5,155.7 1.4,153.7 C0.9,153.1 0.7,152 0.7,151.3 C0.3,147.1 1.1,142.7 1.3,138.5 C1.5,135.4 2,132.3 2,129.2 C2,126.8 1.5,124.5 1.3,122.2 C1.2,121 1.1,119.8 1.8,118.7 C3.2,116.7 3,115.6 2.2,113.3 C0.6,108.9 2.2,103.6 2.4,99 C2.8,93.6 3,88.3 2.4,82.8 C1.8,76.8 0.6,71 1,64.9 C1.4,59.4 1.7,54.4 2,49 C2.5,39.2 2.5,29.3 2.2,19.5 L2.2,21.8 C2.2,21.8 1.4,9.3 6.6,6.3 C14.6,1.9 24.3,2.6 33,2.2 C44.3,1.7 55.7,2.8 67,2.8 C73.6,2.8 80.1,2.7 86.5,1.2 C91,0.2 95.5,-0.2 100.1,4.57411886e-14 C105.7,0.4 111.1,1.8 116.6,2.3 C122.1,2.8 127.5,2.5 133,2.2 C144.9,1.4 156.9,1.7 168.8,2.2 L187.4,3 C190.3,3.1 193.6,3.8 196.4,3.1 L201.7,1.3 C205.6,0.2 208.3,1.2 212.1,2.1 L226.1,5.4 C227.7,5 229.2,4.9 230.4,6.1 C233,8.5 230.5,11.5 232.4,14.2 C234.7,17.4 236.8,19.5 237.3,23.6 C237.8,28 238,32.8 236.6,37.1 C235.6,40 234.3,43.1 235.5,46.2 C236.2,48.1 237.5,49.9 238,51.9 C239,56.2 239,60.5 238.7,64.9 C238.5,69.9 238.2,75 237.6,79.9 C237.2,83.1 235.9,86.2 235.8,89.3 C235.7,91.9 236.5,94.1 237,96.6 C238.7,104.8 231.5,110 230.2,117.5 C229.5,121.6 234.1,119.8 236.2,122.2 C237.5,123.8 236.8,126.4 236.7,128.1 C236.2,132.5 237.5,136.8 237.3,141.2 C237.1,146.7 235.4,151.2 236.7,156.7 C237.4,159.8 238,162.9 237.3,166 C236.6,169.1 233,176.9 237.8,178.3 C238,178.3 238.2,178.5 238.2,178.8 C238.2,180.2 238,181.2 237.4,182.5 C235.3,187.3 238.6,186.3 239.2,189.4 C239.8,192.3 238.1,193.3 237.6,196 C236.9,200.3 239.2,203.6 239,207.8 C238.9,211.7 236.7,213.9 237.4,217.5 C237.6,217.5 237.9,217.7 237.9,218 C238.3,219.9 238.5,222.1 237.8,224 C236.8,226.7 235.7,227.5 238.8,229.1 C239.6,228.5 239.6,229.2 239.1,229.5 L239.1,229.5 L239.1,229.5 Z M186.8,96.8 C184.9,85.1 183.8,72.9 179.9,61.7 C178.2,57 177.4,51.9 171.9,51 C164.7,49.8 167.1,55.8 168.1,61.5 C169.5,70.3 170.1,79.3 172.4,88 C174,94 176.9,101.1 168.9,96.5 C155.5,88.4 150.9,70.7 145.5,57.5 C143.1,51.5 136.1,37.2 131.3,33.6 C129,31.9 117.7,29.4 115.5,30.9 C110.8,34.1 125.3,56.6 127.3,60.6 C131.7,69.6 136.4,78.5 142.1,86.6 C146.2,92.3 152.6,97.6 143.5,101 C134.1,104.6 129.5,99.3 123.1,94.4 C118,90.6 111.5,90 105.1,89.3 C87.5,87.2 70.8,89.2 56.7,100.9 C49.9,106.6 45.6,114.4 42,122.4 C41,124.4 35.2,142.1 36,142.2 C32.4,141.6 34.6,133.2 30,138.1 C25.9,142.4 31.2,154.8 33,159.1 C37.1,168.7 41.4,178.1 44.6,188.1 C47.8,198.1 48.5,197.9 57.7,198.7 C69.4,199.8 80.9,196.2 92.4,194.8 C92.4,194.8 72,182.1 112.3,196 C121.3,199.1 130.8,198.3 140.2,198.6 C146.9,197 147.1,185.5 150.6,180.1 C151.9,178.1 158.4,167.9 160.4,167.1 C163.3,166 167.4,169 170.3,169.4 C187.1,172 192.3,158.2 189.6,144.7 C187.3,132.9 188.6,119.7 190.3,110.6 C191,107.2 187.4,99.9 186.8,96.8 L186.8,96.8 L186.8,96.8 Z M111.7,240.4 C109.9,238.7 107.2,238.3 105.4,236.5 C104.4,235.4 104.1,234.4 104.3,233.2 C104.3,233.2 104.2,233.2 104.2,233.1 C102.9,230.7 105.9,228.7 108,229.5 C109.1,230 110.7,230.7 110.9,232 C111,233.7 109.9,234.9 109.6,236.4 C110.8,237.1 112,238.8 112.6,239.6 C113,240.3 112.2,240.9 111.7,240.4 L111.7,240.4 L111.7,240.4 Z" id="jade-logo" fill="#C1272D" sketch:type="MSShapeGroup"></path>
    </g>
</svg>