<svg xmlns="http://www.w3.org/2000/svg" width="31" height="31" viewBox="0 0 31 31" version="1.1">
  <title>
    Link Icon
  </title>
  <desc>
    Link Icon
  </desc>
  <g stroke="none" stroke-width="1" fill="none" fill-rule="evenodd">
    <g class="icon-fill" transform="translate(-153.000000, -723.000000)" fill="#F7F7F7">
      <g transform="translate(99.000000, 98.000000)">
        <path d="M72.7 637.3C72.3 636.9 71.7 636.9 71.3 637.3L66.3 642.3C65.9 642.7 65.9 643.3 66.3 643.7 66.7 644.1 67.3 644.1 67.7 643.7L72.7 638.7C73.1 638.3 73.1 637.7 72.7 637.3L72.7 637.3ZM83.8 627.6L82.4 626.2C80.8 624.6 78.2 624.6 76.6 626.2L69.5 633.3C68.4 634.4 68.1 635.9 68.5 637.2L78.1 627.6C78.9 626.8 80.1 626.8 80.9 627.6L82.4 629C83.1 629.8 83.1 631.1 82.4 631.9L72.7 641.5C74.1 641.9 75.6 641.5 76.6 640.5L83.8 633.3C85.4 631.8 85.4 629.2 83.8 627.6L83.8 627.6ZM60.9 653.4C60.1 654.1 58.8 654.1 58 653.4L56.6 651.9C55.8 651.1 55.8 649.9 56.6 649.1L66.2 639.5C64.9 639.1 63.4 639.4 62.3 640.5L55.2 647.6C53.6 649.2 53.6 651.8 55.2 653.4L56.6 654.8C58.2 656.4 60.8 656.4 62.3 654.8L69.5 647.6C70.5 646.6 70.9 645.1 70.5 643.7L60.9 653.4 60.9 653.4Z"/>
      </g>
    </g>
  </g>
</svg>