<svg xmlns="http://www.w3.org/2000/svg" width="32" height="32" viewBox="0 0 32 32" version="1.1">
  <title>
    LinkedIn
  </title>
  <desc>
    LinkedIn Social Icon.
  </desc>
  <g stroke="none" stroke-width="1" fill="none" fill-rule="evenodd">
    <g transform="translate(-86.000000, -448.000000)" fill="#4677B1">
      <g transform="translate(86.000000, 448.000000)">
        <path d="M27.3 27.3L22.5 27.3 22.5 19.8C22.5 18.1 22.5 15.8 20.1 15.8 17.6 15.8 17.2 17.7 17.2 19.7L17.2 27.3 12.5 27.3 12.5 12 17 12 17 14.1 17.1 14.1C17.7 12.9 19.3 11.6 21.6 11.6 26.4 11.6 27.3 14.8 27.3 18.9L27.3 27.3ZM7.1 9.9C5.6 9.9 4.4 8.7 4.4 7.2 4.4 5.6 5.6 4.4 7.1 4.4 8.6 4.4 9.9 5.6 9.9 7.2 9.9 8.7 8.6 9.9 7.1 9.9L7.1 9.9ZM9.5 27.3L4.7 27.3 4.7 12 9.5 12 9.5 27.3ZM30.7 0L1.3 0C0.6 0 0 0.6 0 1.3L0 30.7C0 31.4 0.6 32 1.3 32L30.7 32C31.4 32 32 31.4 32 30.7L32 1.3C32 0.6 31.4 0 30.7 0L30.7 0Z"/>
      </g>
    </g>
  </g>
</svg>