<?xml version="1.0" encoding="UTF-8" standalone="no"?>
<svg width="61px" height="60px" viewBox="0 0 61 60" version="1.1" xmlns="http://www.w3.org/2000/svg" xmlns:xlink="http://www.w3.org/1999/xlink" xmlns:sketch="http://www.bohemiancoding.com/sketch/ns">
    <!-- Generator: Sketch 3.3.1 (12005) - http://www.bohemiancoding.com/sketch -->
    <title>Mail</title>
    <desc>Created with Sketch.</desc>
    <defs></defs>
    <g id="Page-1" stroke="none" stroke-width="1" fill="none" fill-rule="evenodd" sketch:type="MSPage">
        <g id="Colour" sketch:type="MSLayerGroup" transform="translate(-158.000000, -239.000000)">
            <g id="Row-4" transform="translate(0.000000, 239.000000)" sketch:type="MSShapeGroup">
                <g id="Mail" transform="translate(158.000000, 0.000000)">
                    <path d="M0.228323699,30 C0.228323699,13.4314567 13.67919,0 30.2716763,0 C46.8641626,0 60.3150289,13.4314567 60.3150289,30 C60.3150289,46.5685433 46.8641626,60 30.2716763,60 C13.67919,60 0.228323699,46.5685433 0.228323699,30 Z" fill="#FFFFFF"></path>
                    <path d="M35.6224062,31.6384006 L48,40.5764264 L48,20 L35.6224062,31.6384006 Z M14,20 L14,40.5764264 L26.3773281,31.6371491 L14,20 Z M31,35.9844891 L28.0448555,33.2065217 L14,42 L48,42 L33.9548125,33.2065217 L31,35.9844891 Z M46.98,20 L15.02,20 L31,32.4549304 L46.98,20 Z" id="Shape" fill="#333333"></path>
                    <path d="M60.3150289,30 C60.3150289,46.5685433 46.8641626,60 30.2716763,60 C24.1179162,60 18.3962835,58.1525134 13.6328132,54.9827754 L48.0573715,5.81941103 C55.4911345,11.2806503 60.3150289,20.0777973 60.3150289,30 Z" id="reflec" fill-opacity="0.08" fill="#000000"></path>
                </g>
            </g>
        </g>
    </g>
</svg>