<svg xmlns="http://www.w3.org/2000/svg" width="28" height="18" viewBox="0 0 28 18" version="1.1">
  <title>
    Fill 120
  </title>
  <desc>
    Created with Sketch.
  </desc>
  <g stroke="none" stroke-width="1" fill="none" fill-rule="evenodd">
    <g transform="translate(-206.000000, -626.000000)" fill="#F7F7F7">
      <g transform="translate(99.000000, 98.000000)">
        <path d="M108 528C107.4 528 107 528.4 107 529 107 529.6 107.4 530 108 530 108.6 530 109 529.6 109 529 109 528.4 108.6 528 108 528L108 528ZM134 536L114 536C113.4 536 113 536.4 113 537 113 537.6 113.4 538 114 538L134 538C134.6 538 135 537.6 135 537 135 536.4 134.6 536 134 536L134 536ZM134 544L114 544C113.4 544 113 544.4 113 545 113 545.6 113.4 546 114 546L134 546C134.6 546 135 545.6 135 545 135 544.4 134.6 544 134 544L134 544ZM108 536C107.4 536 107 536.4 107 537 107 537.6 107.4 538 108 538 108.6 538 109 537.6 109 537 109 536.4 108.6 536 108 536L108 536ZM108 544C107.4 544 107 544.4 107 545 107 545.6 107.4 546 108 546 108.6 546 109 545.6 109 545 109 544.4 108.6 544 108 544L108 544ZM114 530L134 530C134.6 530 135 529.6 135 529 135 528.4 134.6 528 134 528L114 528C113.4 528 113 528.4 113 529 113 529.6 113.4 530 114 530L114 530Z"/>
      </g>
    </g>
  </g>
</svg>