<?xml version="1.0" encoding="UTF-8" standalone="no"?>
<svg width="24px" height="24px" viewBox="0 0 24 24" version="1.1" xmlns="http://www.w3.org/2000/svg" xmlns:xlink="http://www.w3.org/1999/xlink" xmlns:sketch="http://www.bohemiancoding.com/sketch/ns">
    <!-- Generator: Sketch 3.3.2 (12043) - http://www.bohemiancoding.com/sketch -->
    <title>Fill 213</title>
    <desc>Created with Sketch.</desc>
    <defs></defs>
    <g id="Assets" stroke="none" stroke-width="1" fill="none" fill-rule="evenodd" sketch:type="MSPage">
        <path d="M23.5636001,3.06754534 L20.9302041,0.4318999 C20.3475878,-0.149966633 19.405054,-0.149966633 18.8231874,0.4318999 L16.2550265,3.00156048 L18.3620432,3.00156048 L19.3495667,2.01403699 C19.6405,1.7223539 20.1121418,1.7223539 20.4038249,2.01403699 L21.9837125,3.59467443 C22.2746458,3.88635753 22.2746458,4.35799934 21.9837125,4.64893261 L21.0171842,5.61621074 L21.0171842,7.72397727 L23.5636001,5.17531187 C24.1454666,4.59419517 24.1454666,3.64941188 23.5636001,3.06754534 L23.5636001,3.06754534 Z M8.28810395,13.0822482 C8.56778979,13.361934 9.93472625,14.7296203 10.9214999,15.7178936 L19.3495667,7.28457805 L16.697425,4.66767831 L8.28810395,13.0822482 L8.28810395,13.0822482 Z M5.05559541,18.4262724 C4.88463462,18.7696936 5.21455895,19.1236125 5.58122484,18.9526517 L9.60930089,16.5134612 L7.49403609,14.395197 L5.05559541,18.4262724 L5.05559541,18.4262724 Z M11.2034352,17.1538143 L4.68068141,20.3803242 C3.94584996,20.7214959 3.3579848,20.0631469 3.62867271,19.3275657 L6.85293314,12.8003129 C6.90842041,12.5191274 7.01639565,12.24619 7.2345956,12.02799 L16.2550265,3.00156048 L2.12151842,3.00156048 C0.96228432,3.00156048 0.022,3.9418448 0.022,5.1010789 L0.022,21.8972262 C0.022,23.0564603 0.96228432,23.9967447 2.12151842,23.9967447 L18.9176658,23.9967447 C20.0768999,23.9967447 21.0171842,23.0564603 21.0171842,21.8972262 L21.0171842,7.72397727 L11.9750083,16.7721518 C11.7575581,16.9896019 11.4846207,17.0990768 11.2034352,17.1538143 L11.2034352,17.1538143 Z M20.4038249,6.23031988 L21.0171842,5.61621074 L21.0171842,5.1010789 C21.0171842,3.9418448 20.0768999,3.00156048 18.9176658,3.00156048 L18.3620432,3.00156048 L17.8071705,3.5564332 L20.4038249,6.23031988 L20.4038249,6.23031988 Z" id="Fill-213" fill="#4A4A4A" sketch:type="MSShapeGroup"></path>
    </g>
</svg>