<svg xmlns="http://www.w3.org/2000/svg" width="28" height="33" viewBox="0 0 28 33" version="1.1">
  <title>
    Resume
  </title>
  <desc>
    Resume Page Icon.
  </desc>
  <g stroke="none" stroke-width="1" fill="none" fill-rule="evenodd">
    <g class="icon-outline" transform="translate(-309.000000, -587.000000)" fill="#B8B8B8">
      <g transform="translate(0.000000, 568.000000)">
        <g transform="translate(21.000000, 17.239437)">
          <path d="M311 10.1C309.9 10.1 309 8.2 309 7.1L309 4.1 309 4.1 314 10.1 311 10.1 311 10.1ZM314 26.4C314 27.4 313.1 28.4 312 28.4L297 28.4C296 28.4 295 27.4 295 26.4L295 6.1C295 5.1 296 4.1 297 4.1L307 4.1C307 6.4 307 8.1 307 8.1 307 10.2 308.9 12.2 311 12.2L314 12.2 314 26.4 314 26.4ZM307 32.5L292 32.5C291 32.5 290 31.5 290 30.4L290 10.1C290 9.1 290.9 8.1 291.9 8.1L293 8.1 293 26.4C293 28.5 294.9 30.4 297 30.4L309 30.4C309 31.5 308 32.5 307 32.5L307 32.5ZM309 2L297 2C294.9 2 293 4 293 6.1L291.8 6.1C289.7 6.1 288 8.1 288 10.1L288 30.4C288 32.5 289.9 34.5 292 34.5L307 34.5C309.1 34.5 311 32.5 311 30.4L312 30.4C314.1 30.4 316 28.5 316 26.4L316 10.2 309 2 309 2ZM309 16.2L300 16.2C299.4 16.2 299 16.7 299 17.3 299 17.8 299.4 18.3 300 18.3L309 18.3C309.6 18.3 310 17.8 310 17.3 310 16.7 309.6 16.2 309 16.2L309 16.2ZM309 21.3L300 21.3C299.4 21.3 299 21.8 299 22.3 299 22.9 299.4 23.3 300 23.3L309 23.3C309.6 23.3 310 22.9 310 22.3 310 21.8 309.6 21.3 309 21.3L309 21.3Z"/>
        </g>
      </g>
    </g>
  </g>
</svg>