<?xml version="1.0" encoding="UTF-8" standalone="no"?>
<svg width="61px" height="60px" viewBox="0 0 61 60" version="1.1" xmlns="http://www.w3.org/2000/svg" xmlns:xlink="http://www.w3.org/1999/xlink" xmlns:sketch="http://www.bohemiancoding.com/sketch/ns">
    <!-- Generator: Sketch 3.3.2 (12043) - http://www.bohemiancoding.com/sketch -->
    <title>Slack</title>
    <desc>Created with Sketch.</desc>
    <defs></defs>
    <g id="Page-1" stroke="none" stroke-width="1" fill="none" fill-rule="evenodd" sketch:type="MSPage">
        <g id="Colour" sketch:type="MSLayerGroup" transform="translate(-158.000000, -319.000000)">
            <g id="Row-4" transform="translate(0.000000, 239.000000)" sketch:type="MSShapeGroup">
                <g id="Slack" transform="translate(158.000000, 80.000000)">
                    <path d="M3,30.5 C3,15.3121686 15.3121686,3 30.5,3 C45.6878314,3 58,15.3121686 58,30.5 C58,45.6878314 45.6878314,58 30.5,58 C15.3121686,58 3,45.6878314 3,30.5 Z" id="slack" fill="#FFFFFF"></path>
                    <path d="M43.3793467,34.00875 L40.341046,35.025 L41.3944989,38.16375 C41.8207623,39.435 41.1334829,40.81125 39.860326,41.236875 C39.5842876,41.32875 39.3026157,41.37 39.0265773,41.3625 C38.0332145,41.33625 37.116842,40.700625 36.7844692,39.705 L35.7310163,36.56625 L29.464756,38.6625 L30.5182088,41.80125 C30.9444723,43.0725 30.2590707,44.446875 28.9859138,44.874375 C28.7079976,44.96625 28.4263257,45.005625 28.1502873,44.998125 C27.1588023,44.97375 26.2424298,44.338125 25.9081791,43.3425 L24.8547263,40.20375 L21.8164257,41.22 C21.5385094,41.311875 21.2568376,41.35125 20.9826769,41.345625 C19.9893141,41.319375 19.0729416,40.68375 18.738691,39.688125 C18.3124275,38.416875 18.9997069,37.0425 20.2728638,36.616875 L23.3111644,35.600625 L21.2906382,29.578125 L18.2523375,30.594375 C17.9762991,30.68625 17.6946272,30.7275 17.4185888,30.72 C16.425226,30.69375 15.5088535,30.058125 15.1764807,29.0625 C14.7483394,27.79125 15.4356188,26.416875 16.7087757,25.99125 L19.7470763,24.975 L18.6936235,21.83625 C18.26736,20.565 18.9546394,19.18875 20.2277963,18.763125 C21.5009532,18.3375 22.8773897,19.02375 23.3036532,20.293125 L24.357106,23.43375 L30.6233663,21.3375 L29.5699135,18.19875 C29.1436501,16.9275 29.8290516,15.55125 31.1022085,15.125625 C32.3753654,14.7 33.7536798,15.38625 34.1799432,16.6575 L35.233396,19.79625 L38.2716967,18.78 C39.5448535,18.354375 40.9212901,19.040625 41.3494314,20.31 C41.7756948,21.58125 41.0884154,22.9575 39.8152585,23.383125 L36.7769579,24.399375 L38.7974842,30.421875 L41.8357848,29.405625 C43.1089417,28.98 44.4853782,29.664375 44.9116417,30.935625 C45.3397829,32.206875 44.6525036,33.583125 43.3793467,34.00875 Z M25.9010434,28.0363125 L27.9215697,34.0588125 L34.18783,31.9625625 L32.1673038,25.9400625 L25.9010434,28.0363125 Z M30.0450001,0 C13.450771,0 0,13.430625 0,30 C0,46.5675 13.450771,60 30.0450001,60 C46.6373514,60 60.0900002,46.5675 60.0900002,30 C60.0900002,13.430625 46.6373514,0 30.0450001,0" id="slack" fill="#785FB0"></path>
                    <path d="M60.3150289,30 C60.3150289,46.5685433 46.8641626,60 30.2716763,60 C24.1179162,60 18.3962835,58.1525134 13.6328132,54.9827754 L48.0573715,5.81941103 C55.4911345,11.2806503 60.3150289,20.0777973 60.3150289,30 Z" id="reflec" fill-opacity="0.08" fill="#000000"></path>
                </g>
            </g>
        </g>
    </g>
</svg>