<svg xmlns="http://www.w3.org/2000/svg" width="32" height="26" viewBox="0 0 32 26" version="1.1">
  <title>
    Twitter
  </title>
  <desc>
    Twitter Social Icon.
  </desc>
  <g stroke="none" stroke-width="1" fill="none" fill-rule="evenodd">
    <g transform="translate(-164.000000, -451.000000)" fill="#50BAE3">
      <g transform="translate(86.000000, 448.000000)">
        <path d="M110 6.1C108.8 6.6 107.6 7 106.2 7.1 107.6 6.3 108.6 5 109.1 3.5 107.8 4.2 106.4 4.8 104.9 5.1 103.7 3.8 102 3 100.2 3 96.5 3 93.6 5.9 93.6 9.6 93.6 10.1 93.6 10.6 93.8 11.1 88.3 10.8 83.5 8.2 80.2 4.2 79.7 5.2 79.3 6.3 79.3 7.5 79.3 9.8 80.5 11.8 82.3 13 81.2 12.9 80.2 12.6 79.3 12.1 79.3 12.2 79.3 12.2 79.3 12.2 79.3 15.4 81.5 18.1 84.6 18.7 84 18.8 83.4 18.9 82.8 18.9 82.4 18.9 82 18.9 81.6 18.8 82.4 21.4 84.8 23.3 87.7 23.3 85.5 25.1 82.6 26.1 79.6 26.1 79 26.1 78.5 26.1 78 26.1 80.9 27.9 84.4 29 88.1 29 100.1 29 106.7 19 106.7 10.3 106.7 10 106.7 9.8 106.7 9.5 108 8.6 109.1 7.4 110 6.1"/>
      </g>
    </g>
  </g>
</svg>