<svg xmlns="http://www.w3.org/2000/svg" width="32" height="31" viewBox="0 0 32 31" version="1.1">
  <title>
    Works
  </title>
  <desc>
    Works Page Icon.
  </desc>
  <g stroke="none" stroke-width="1" fill="none" fill-rule="evenodd">
    <g class="icon-outline" transform="translate(-236.000000, -588.000000)" fill="#B8B8B8">
      <g transform="translate(0.000000, 568.000000)">
        <g transform="translate(21.000000, 17.239437)">
          <path d="M245 16.2L217 16.2 217 11.2C217 10 217.9 9.1 219 9.1L243 9.1C244.1 9.1 245 10 245 11.2L245 16.2 245 16.2ZM229 19.3C229 18.9 229.1 18.6 229.3 18.3L232.7 18.3C232.9 18.6 233 18.9 233 19.3 233 20.4 232.1 21.3 231 21.3 229.9 21.3 229 20.4 229 19.3L229 19.3ZM245 29.4C245 30.5 244.1 31.4 243 31.4L219 31.4C217.9 31.4 217 30.5 217 29.4L217 18.3 227.1 18.3C227.1 18.6 227 18.9 227 19.3 227 21.5 228.8 23.3 231 23.3 233.2 23.3 235 21.5 235 19.3 235 18.9 234.9 18.6 234.9 18.3L245 18.3 245 29.4 245 29.4ZM227 6.1C227 5.5 227.4 5.1 228 5.1L234 5.1C234.6 5.1 235 5.5 235 6.1L235 7.1 227 7.1 227 6.1 227 6.1ZM243 7.1L237 7.1 237 5.1C237 4 236.1 3 235 3L227 3C225.9 3 225 4 225 5.1L225 7.1 219 7.1C216.8 7.1 215 8.9 215 11.2L215 29.4C215 31.6 216.8 33.5 219 33.5L243 33.5C245.2 33.5 247 31.6 247 29.4L247 11.2C247 8.9 245.2 7.1 243 7.1L243 7.1Z"/>
        </g>
      </g>
    </g>
  </g>
</svg>